<svg xmlns="http://www.w3.org/2000/svg" viewBox="0 0 500 500">
  <title>Sentimony Records Logo SVG v3.1</title>
  <path fill="#144B15" fill-rule="nonzero" d="M20.147 216.843l-.004-.341L235.718 56l30.003 7.769-12.672 25.052 25.03 3.02-36.711 72.277 129.944-31.037 108.215 78.789v44.851c.504.918.63 2.038.256 3.103l-.256.727v26.232l-12.362 8.537a3.82 3.82 0 01-2.268 1.567l-48.09 33.213a3.82 3.82 0 01-2.331 1.61l-22.824 15.763a3.82 3.82 0 01-2.477 1.71l-22.886 15.806a3.822 3.822 0 01-1.772 1.225l-48.39 33.42a3.819 3.819 0 01-2.655 1.833l-46.99 32.454a3.817 3.817 0 01-3.074 2.122l-12.323 8.51-59.477-41.74 39.458-111.24L83.55 326.504l-62.573-39.721-.104-8.723a3.799 3.799 0 01-.019-1.59l-.699-58.94-.155-.652.147-.035zm226.345-115.06a3.8 3.8 0 01-.668 1.322l-34.491 68.186 20.299-4.848 34.71-68.336-16.956-2.045-2.894 5.721zm3.92-34.099l-13.07-3.384L38.25 212.53l25.62-6.104a3.83 3.83 0 01.582-.533L250.412 67.684zM27.846 222.85l.137 11.531 243.311-56.655 4.94-14.054-66.484 15.84-12.651 3.021-85.346 20.326a3.795 3.795 0 01-1.832.437L27.846 222.85zm.23 19.34l.132 11.207 235.788-54.903 4.301-12.238L28.076 242.19zm.225 19.017l.133 11.206 228.264-53.151 4.3-12.239-232.697 54.184zm.226 19.016l.027 2.336 10.252 6.507L249.4 240.03l4.3-12.239-225.173 52.432zm19.305 14.573l12.951 8.221 181.319-42.22 4.3-12.238-198.57 46.237zm21.977 13.95l15.114 9.595 149.388-35.375 4.793-13.64-169.295 39.42zm131.382 91.473l9.124 6.403 87.254-248.086-11.804 2.82.01.042-.718.172-83.866 238.65zm15.609 10.954l9.169 6.435 91.724-263.879-11.425 2.73c-.03.3-.095.602-.2.9L216.8 411.172zm15.66 10.991l8.838 6.202 97.19-279.603-12.007 2.867a3.862 3.862 0 01-.1.335l-93.92 270.199zm15.329 10.758l3.331 2.338 9.013-6.225 99.15-285.24-12.06 2.881c-.035.223-.09.445-.166.665l-99.268 285.58zm22.97-11.226l13.948-9.632 92.57-265.205-7.613-5.543-1.955.467a3.8 3.8 0 01-.199 1.573l-96.75 278.34zm24.593-16.984l14.499-10.013 83.143-236.397-9.275-6.753-88.367 253.163zm25.178-17.39l14.507-10.018 73.137-207.95-8.743-6.366-78.901 224.335zm25.186-17.394l14.507-10.019 63.132-179.502-8.743-6.366-68.896 195.887zm25.186-17.394l14.507-10.02 53.127-151.054-8.744-6.366-58.89 167.44zm25.187-17.395l14.506-10.019 43.122-122.607-8.744-6.366-48.884 138.992zm25.186-17.395l14.507-10.019 33.116-94.159-8.744-6.366-38.88 110.544zm25.186-17.394l14.507-10.02 10.932-31.082v-31.227L446.46 300.35zm25.186-17.395l.253-.174v-.544l-.253.718zM201.613 173.61l11.999-23.721-41.315 30.706 29.316-6.985zm19.702-38.95l10.676-21.106-104.598 77.739 26.084-6.215 67.838-50.417zm18.379-36.334L250.37 77.22 82.489 201.99l26.084-6.214 131.12-97.45z"/>
</svg>
