<svg xmlns="http://www.w3.org/2000/svg" viewBox="0 0 500 500">
  <title>Sentimony Records Logo SVG v3.2</title>
  <path fill="#144B15" fill-rule="nonzero" d="M237.281 173.017l-.052.105-.123-.063-39.913 9.524 57.618-113.8-17.32-4.48-209.808 156.06.74 62.286 56.444 35.796 158.225-37.431-42.258 119.022 50.453 35.375 221.075-152.54v-67.056L369.99 141.35 237.28 173.017zm15.785-83.883l24.941 3.033-36.234 71.934 129.866-30.99L480 211.932v74.943L251.252 444.708l-59.557-41.757 39.51-111.284-147.712 34.945-62.658-39.737-.835-70.31L235.864 56l30.043 7.772-12.84 25.362zm-3.666 7.242l-37.954 74.961 20.677-4.934 34.235-67.965-16.958-2.062z"/>
</svg>
