<svg xmlns="http://www.w3.org/2000/svg" viewBox="0 0 500 500">
  <title>Sentimony Records Logo SVG</title>
  <path fill="#144B15" fill-rule="evenodd" d="M19.388 428.472c-4.87-13.475 3.48-27.542 18.763-25.907 15.29 1.623 17.93 29.48 52.42 29.48H118c21.477 0 30.963-37.528 0-42.538-11.307-1.832-18.938.197-33.69-2.087-72.668-11.365-67.148-105.762-19.81-125.326 8.117-5.706 30.846-1.798 37.572-33.63 22.36-193.898 90.455-139.36 98.978-134.754 23.194-84.24 121.708-50.18 107.305 5.82-14.38 56.013-10.437 45.762-29.526 115.215 61.063 16.792 138.07 9.16 155.14 81.026 63.603 0 64.13 89.927 0 89.927h-47.86c-34.72 0-36.38 51.605 0 51.605 12.36 0 47.14 1.797 55.85 1.797 13.83 0 13.83 17.905 0 17.905H64.5c-24.122-2.435-40.218-15.075-45.112-28.527zm183.808-39.73h102.33c33.63 0 32.26 47.743 0 47.743-13.917 0-75.414-2.226-102.32-2.226-31.774 0-32.817-45.46 0-45.46l-.01-.06z"/>
</svg>
