<svg xmlns="http://www.w3.org/2000/svg" viewBox="0 0 40 36">
    <title>Sentimony Records logo</title>
    <g fill="#c3c3c3" fill-rule="evenodd">
        <path d="M.12 33.24c-.42-1.162.3-2.375 1.618-2.234 1.318.14 1.546 2.542 4.52 2.542h2.365c1.852 0 2.67-3.236 0-3.668-.975-.158-1.633.017-2.905-.18-6.266-.98-5.79-9.12-1.708-10.807.7-.492 2.66-.155 3.24-2.9 1.928-16.72 7.8-12.017 8.535-11.62 2-7.264 10.495-4.327 9.253.502-1.24 4.83-.9 3.946-2.546 9.935 5.266 1.448 11.906.79 13.378 6.987 5.485 0 5.53 7.754 0 7.754h-4.127c-2.994 0-3.137 4.45 0 4.45 1.066 0 4.065.155 4.816.155 1.193 0 1.193 1.544 0 1.544H4.01C1.93 35.49.542 34.4.12 33.24zm15.85-3.426h8.824c2.9 0 2.782 4.117 0 4.117-1.2 0-6.503-.192-8.823-.192-2.74 0-2.83-3.92 0-3.92z"/>
    </g>
</svg>
