<svg xmlns="http://www.w3.org/2000/svg" width="500" height="500">
  <g fill="none" fill-rule="nonzero" transform="translate(0 36)">
    <path fill="#DDAF89" d="M459.873 383.353l-72.645-12.813v58.231h103.484c5.54 0 9.529-5.32 7.975-10.638a49.366 49.366 0 0 0-38.814-34.78z"/>
    <path fill="#000" d="M459.873 383.353l-72.645-12.813v58.231h103.484c5.54 0 9.529-5.32 7.975-10.638a49.366 49.366 0 0 0-38.814-34.78z" opacity=".1"/>
    <path fill="#DDAF89" d="M39.152 383.353l72.645-12.813v58.231H8.314c-5.54 0-9.53-5.32-7.976-10.638a49.366 49.366 0 0 1 38.814-34.78z"/>
    <path fill="#000" d="M39.152 383.353l72.645-12.813v58.231H8.314c-5.54 0-9.53-5.32-7.976-10.638a49.366 49.366 0 0 1 38.814-34.78z" opacity=".2"/>
    <path fill="#DDAF89" d="M285.065 118.09c-48.61-26.081-51.861-71.651-47.328-102.74 1.95-13.37 17.532-19.77 28.396-11.735 3.18 2.352 6.375 4.709 9.455 6.976a61.191 61.191 0 0 0 51.376 10.017c4.367-1.11 8.977-2.309 13.625-3.557 14.641-3.931 29.474 6.427 30.357 21.561 1.974 33.836-35.66 72.08-85.88 79.479z"/>
    <g fill="#000" opacity=".2">
      <path d="M279.319 87.279a7.312 7.312 0 0 1-7.06-5.434l-9.544-35.898a7.309 7.309 0 0 1 5.187-8.942 7.308 7.308 0 0 1 8.942 5.186l9.544 35.899a7.31 7.31 0 0 1-7.07 9.189zM301.9 93.585a7.31 7.31 0 0 1-5.842-11.696L320.8 48.902a7.311 7.311 0 0 1 11.696 8.771l-24.742 32.988a7.304 7.304 0 0 1-5.853 2.924z"/>
    </g>
    <circle cx="289.113" cy="113.002" r="44.687" fill="#DDAF89"/>
    <circle cx="289.113" cy="113.002" r="44.687" fill="#000" opacity=".1"/>
    <path fill="#DDAF89" d="M421.136 298.766c13.679-40.708.639-92.233-30.44-130.592-30.699-37.89-85.099-55.478-126.046-58.504-38.955-2.88-78.217-3.063-127.571 41.759-33.433 30.362-57.622 94.146-55.763 143.355-33.218 12.379-55.507 46.389-50.841 83.891 3.56 28.615 27.879 50.096 56.714 50.096h319.137c28.835 0 53.155-21.48 56.714-50.096 4.235-34.029-13.725-65.182-41.904-79.909z"/>
    <g fill="#495059">
      <path d="M248.932 378.663h-34.233a7.31 7.31 0 0 1-7.31-7.31 7.31 7.31 0 0 1 7.31-7.31h34.233c7.683 0 13.933-6.252 13.933-13.934 0-7.683-6.25-13.934-13.933-13.934h-12.989c-15.744 0-28.554-12.809-28.554-28.553 0-15.745 12.809-28.554 28.554-28.554h34.232a7.31 7.31 0 0 1 7.31 7.31 7.31 7.31 0 0 1-7.31 7.31h-34.232c-7.684 0-13.934 6.252-13.934 13.934 0 7.683 6.25 13.934 13.934 13.934h12.989c15.744 0 28.553 12.809 28.553 28.553 0 15.745-12.808 28.554-28.553 28.554z"/>
      <path d="M242.438 391.493a7.31 7.31 0 0 1-7.31-7.31V273.547a7.31 7.31 0 0 1 7.31-7.31 7.31 7.31 0 0 1 7.31 7.31v110.636a7.31 7.31 0 0 1-7.31 7.31z"/>
    </g>
    <g fill="#FFF" transform="translate(145.224 192.008)">
      <ellipse cx="29.825" cy="23.255" rx="29.084" ry="23.161"/>
      <ellipse cx="187.476" cy="23.255" rx="29.084" ry="23.161"/>
    </g>
    <g fill="#495059">
      <path d="M315.75 199.465a7.31 7.31 0 0 1-7.31-7.31v-10.271a7.31 7.31 0 0 1 14.62 0v10.271a7.31 7.31 0 0 1-7.31 7.31zM258.754 207.352a28.945 28.945 0 0 1-21.823-9.94 7.308 7.308 0 0 1 .71-10.313 7.31 7.31 0 0 1 10.312.709 14.327 14.327 0 0 0 10.801 4.924c4.138 0 8.074-1.794 10.802-4.924a7.31 7.31 0 0 1 10.312-.709 7.31 7.31 0 0 1 .71 10.313 28.944 28.944 0 0 1-21.824 9.94zM204.137 198.004a7.31 7.31 0 0 1-7.31-7.31c0-4.19-3.408-7.6-7.598-7.6-4.19 0-7.6 3.409-7.6 7.6a7.31 7.31 0 0 1-7.31 7.31 7.31 7.31 0 0 1-7.31-7.31c0-12.252 9.969-22.22 22.22-22.22 12.25 0 22.218 9.968 22.218 22.22a7.31 7.31 0 0 1-7.31 7.31z"/>
    </g>
    <g fill="#000" opacity=".1">
      <path d="M379.362 372.064a7.31 7.31 0 0 1-5.17-12.479l10.675-10.675a7.31 7.31 0 0 1 10.339 10.338l-10.676 10.675a7.286 7.286 0 0 1-5.168 2.141zM371.02 270.119a7.31 7.31 0 0 1-5.17-12.479l16.05-16.047a7.31 7.31 0 0 1 10.338 0 7.311 7.311 0 0 1 0 10.338l-16.049 16.048a7.292 7.292 0 0 1-5.169 2.14zM125.175 273.24a7.31 7.31 0 0 1-5.17-12.479l6.245-6.243a7.31 7.31 0 0 1 10.339 10.337l-6.245 6.244a7.284 7.284 0 0 1-5.169 2.142z"/>
    </g>
    <path fill="#000" d="M175.902 289.29c-22.775-37.15-31.39-121.856 11.214-170.826-15.668 6.439-32.192 16.758-50.036 32.964-33.433 30.362-57.622 94.146-55.763 143.355-33.218 12.379-55.507 46.389-50.841 83.891 3.56 28.615 27.879 50.096 56.714 50.096h163.982c-85.075-28.823-81.94-101.17-73.697-127.388 1.277-4.065.654-8.458-1.573-12.093z" opacity=".1"/>
  </g>
</svg>
